<?xml version="1.0" encoding="UTF-8"?>
<svg width="24px" height="24px" viewBox="0 0 24 24" version="1.1" xmlns="http://www.w3.org/2000/svg" xmlns:xlink="http://www.w3.org/1999/xlink">
    <!-- Generator: Sketch 46.2 (44496) - http://www.bohemiancoding.com/sketch -->
    <title>user</title>
    <desc>Created with Sketch.</desc>
    <defs></defs>
    <g id="功能改版界面" stroke="none" stroke-width="1" fill="none" fill-rule="evenodd">
        <g id="user">
            <g>
                <rect id="Rectangle-6" x="0" y="0" width="24" height="24"></rect>
                <path d="M5.1983867,19.3306839 C6.98287765,20.9871528 9.37315726,22 12,22 C14.6286147,22 17.020347,20.9857859 18.8052236,19.3273309 C17.5671297,15.775777 15.2987218,14 12,14 C8.70024022,14 6.43303579,15.7768946 5.1983867,19.3306839 Z M4.39669179,18.4956493 C5.85173384,14.8296074 8.38616991,12.9965865 12,12.9965865 C15.6133253,12.9965865 18.1481991,14.8290954 19.6046216,18.4941131 C21.0981284,16.7468765 22,14.47876 22,12 C22,6.4771525 17.5228475,2 12,2 C6.4771525,2 2,6.4771525 2,12 C2,14.4794865 2.90240038,16.748206 4.39669179,18.4956493 Z M12,23 C5.92486775,23 1,18.0751322 1,12 C1,5.92486775 5.92486775,1 12,1 C18.0751322,1 23,5.92486775 23,12 C23,18.0751322 18.0751322,23 12,23 Z M12,12 C9.790861,12 8,10.209139 8,8 C8,5.790861 9.790861,4 12,4 C14.209139,4 16,5.790861 16,8 C16,10.209139 14.209139,12 12,12 Z M12,11 C13.6568542,11 15,9.65685425 15,8 C15,6.34314575 13.6568542,5 12,5 C10.3431458,5 9,6.34314575 9,8 C9,9.65685425 10.3431458,11 12,11 Z" id="Combined-Shape" fill="#808080"></path>
            </g>
        </g>
    </g>
</svg>